<svg width="77" height="77" viewBox="0 0 77 77" fill="none" xmlns="http://www.w3.org/2000/svg">
<circle cx="38.5" cy="38.5" r="36.5" stroke="#F1E332" stroke-width="4"/>
<path d="M33.5 23C35.4312 23 37 24.5688 37 26.5V51.5C37 53.4312 35.4312 55 33.5 55C31.6938 55 30.2063 53.6312 30.0188 51.8687C29.6938 51.9562 29.35 52 29 52C26.7938 52 25 50.2062 25 48C25 47.5375 25.0812 47.0875 25.225 46.675C23.3375 45.9625 22 44.1375 22 42C22 40.0063 23.1687 38.2812 24.8625 37.4812C24.3187 36.8 24 35.9375 24 35C24 33.0812 25.35 31.4812 27.15 31.0875C27.05 30.7437 27 30.375 27 30C27 28.1313 28.2875 26.5563 30.0188 26.1188C30.2063 24.3688 31.6938 23 33.5 23ZM42.5 23C44.3062 23 45.7875 24.3688 45.9813 26.1188C47.7188 26.5563 49 28.125 49 30C49 30.375 48.95 30.7437 48.85 31.0875C50.65 31.475 52 33.0812 52 35C52 35.9375 51.6813 36.8 51.1375 37.4812C52.8313 38.2812 54 40.0063 54 42C54 44.1375 52.6625 45.9625 50.775 46.675C50.9187 47.0875 51 47.5375 51 48C51 50.2062 49.2062 52 47 52C46.65 52 46.3063 51.9562 45.9813 51.8687C45.7938 53.6312 44.3062 55 42.5 55C40.5688 55 39 53.4312 39 51.5V26.5C39 24.5688 40.5688 23 42.5 23Z" fill="#F1E332"/>
</svg>
