<svg width="77" height="77" viewBox="0 0 77 77" fill="none" xmlns="http://www.w3.org/2000/svg">
<path d="M22 38.5C22 34.1239 23.7384 29.9271 26.8327 26.8327C29.9271 23.7384 34.1239 22 38.5 22C42.8761 22 47.0729 23.7384 50.1673 26.8327C53.2616 29.9271 55 34.1239 55 38.5C55 42.8761 53.2616 47.0729 50.1673 50.1673C47.0729 53.2616 42.8761 55 38.5 55C34.1239 55 29.9271 53.2616 26.8327 50.1673C23.7384 47.0729 22 42.8761 22 38.5ZM34.1365 31.4811C33.6467 31.7518 33.3438 32.2738 33.3438 32.8281V44.1719C33.3438 44.7326 33.6467 45.2482 34.1365 45.5189C34.6264 45.7896 35.2193 45.7832 35.7027 45.4867L44.984 39.8148C45.4416 39.5312 45.7252 39.035 45.7252 38.4936C45.7252 37.9521 45.4416 37.4559 44.984 37.1723L35.7027 31.5004C35.2258 31.2104 34.6264 31.1975 34.1365 31.4682V31.4811Z" fill="#F1E332"/>
<circle cx="38.5" cy="38.5" r="36.5" stroke="#F1E332" stroke-width="4"/>
</svg>
