<svg width="77" height="77" viewBox="0 0 77 77" fill="none" xmlns="http://www.w3.org/2000/svg">
<path d="M39 38C41.1217 38 43.1566 37.1571 44.6569 35.6569C46.1571 34.1566 47 32.1217 47 30C47 27.8783 46.1571 25.8434 44.6569 24.3431C43.1566 22.8429 41.1217 22 39 22C36.8783 22 34.8434 22.8429 33.3431 24.3431C31.8429 25.8434 31 27.8783 31 30C31 32.1217 31.8429 34.1566 33.3431 35.6569C34.8434 37.1571 36.8783 38 39 38ZM36.1438 41C29.9875 41 25 45.9875 25 52.1437C25 53.1687 25.8313 54 26.8563 54H51.1437C52.1687 54 53 53.1687 53 52.1437C53 45.9875 48.0125 41 41.8563 41H36.1438Z" fill="#F1E332"/>
<circle cx="38.5" cy="38.5" r="36.5" stroke="#F1E332" stroke-width="4"/>
</svg>
